<svg xmlns="http://www.w3.org/2000/svg" viewBox="0 0 93.3437 93.3437"><defs><style>.cls-1{fill:#d4d7d8;}</style></defs><g id="Layer_2" data-name="Layer 2"><g id="turn_indicator" data-name="turn indicator"><path id="move_icon" data-name="move icon" class="cls-1" d="M50.918,46.6718a4.2462,4.2462,0,1,1-4.2462-4.2461A4.2462,4.2462,0,0,1,50.918,46.6718Zm35.3847,1.4154h7.041A46.7478,46.7478,0,0,1,48.0872,93.3437v-7.041a1.4154,1.4154,0,1,0-2.8308,0v7.041A46.7478,46.7478,0,0,1,0,48.0872H7.041a1.4154,1.4154,0,1,0,0-2.8308H0A46.7478,46.7478,0,0,1,45.2564,0V7.041a1.4154,1.4154,0,1,0,2.8308,0V0A46.7478,46.7478,0,0,1,93.3437,45.2564h-7.041a1.4154,1.4154,0,1,0,0,2.8308ZM69.6905,23.6531a1.4116,1.4116,0,0,0-1.651-.2563L39.0157,38.4089a1.4207,1.4207,0,0,0-.6068.6068L23.3968,68.04a1.4154,1.4154,0,0,0,1.9074,1.9074L54.3279,54.9347a1.4207,1.4207,0,0,0,.6068-.6068L69.9469,25.3042A1.4146,1.4146,0,0,0,69.6905,23.6531Z"/></g></g></svg>