<svg xmlns="http://www.w3.org/2000/svg" viewBox="0 0 140.4837 62.3576"><defs><style>.cls-1{fill:#d4d7d8;}</style></defs><g id="Layer_2" data-name="Layer 2"><g id="player_ship_indicator" data-name="player ship indicator"><path id="player_ship" data-name="player ship" class="cls-1" d="M5.734,48.0225v5.734c2.5875,0,3.79,1.1067,5.8659,3.2254,2.2234,2.2693,5.2682,5.3757,10.9864,5.3757s8.7631-3.1064,10.9865-5.3757c2.0757-2.12,3.2784-3.2254,5.8659-3.2254,2.5831,0,3.7859,1.1053,5.86,3.224,2.222,2.2692,5.2639,5.3771,10.9807,5.3771,5.7183,0,8.7616-3.1079,10.9835-5.3771,2.0743-2.1187,3.2785-3.224,5.8631-3.224s3.7859,1.1053,5.8587,3.224c2.222,2.2692,5.2639,5.3771,10.9807,5.3771s8.7573-3.1079,10.9778-5.3771c2.0743-2.1187,3.2756-3.224,5.8587-3.224s3.7859,1.1053,5.86,3.224c2.222,2.2692,5.2639,5.3771,10.9807,5.3771s8.7587-3.1079,10.9807-5.3771c2.0742-2.1187,3.2769-3.224,5.86-3.224v-5.734c-5.7168,0-8.7587,3.1079-10.9806,5.3771-1.7833,1.822-2.9273,2.8885-4.8525,3.1537l12.9661-30.75H107.5131L86.01,0H31.5372V25.8031H28.8909L22.9361,0,0,7.6449l20.45,6.8163L23.111,25.8031h-5.91V53.8812c-.1577-.1576-.3126-.311-.48-.483C14.4971,51.1289,11.4523,48.0225,5.734,48.0225ZM51.7769,8.601V25.8031H40.1382V8.601ZM96.045,25.8031H60.3779V8.601H81.71Z"/></g></g></svg>