<svg xmlns="http://www.w3.org/2000/svg" viewBox="0 0 94.9844 95.0392"><defs><style>.cls-1{fill:#d4d7d8;}</style></defs><g id="Layer_2" data-name="Layer 2"><g id="turn_indicator" data-name="turn indicator"><path id="probe_icon" data-name="probe icon" class="cls-1" d="M38.9232,47.3775a8.6473,8.6473,0,1,0,17.1627-1.5021l35.0053-6.1708A4.4964,4.4964,0,0,0,94.76,34.5107q-.0374-.2166-.0957-.4289A48.8592,48.8592,0,0,0,60.8662.3349a4.4962,4.4962,0,0,0-5.5333,3.1327q-.0534.1925-.0894.3892L49.0726,38.8622a8.6068,8.6068,0,0,0-10.1494,8.5153Zm8.6473,47.6516A47.57,47.57,0,0,0,94.9582,52.3a4.4049,4.4049,0,0,0-1.1266-3.4508,4.4759,4.4759,0,0,0-3.3189-1.4818,4.5581,4.5581,0,0,0-.7916.071,4.4963,4.4963,0,0,0-3.6741,4.06A38.73,38.73,0,1,1,43.49,8.9315,4.4759,4.4759,0,0,0,43.1149,0H42.648a47.6515,47.6515,0,0,0,4.9326,95.0392ZM41.0952,28.8447a4.3951,4.3951,0,0,0,2.8418-3.41A4.4861,4.4861,0,0,0,42.9221,21.76a4.4149,4.4149,0,0,0-3.38-1.6036,4.365,4.365,0,0,0-1.4412.2435A28.6011,28.6011,0,1,0,74.5477,56.8165a4.3137,4.3137,0,0,0-.5684-3.9583A4.5165,4.5165,0,0,0,70.3154,50.95a4.5979,4.5979,0,0,0-.7917.0711,4.3944,4.3944,0,0,0-3.41,2.8418A19.6391,19.6391,0,1,1,41.0952,28.8447Z"/></g></g></svg>