# Apple ModelIO OBJ File: coin-test.vox
mtllib coin-test.vox.mtl
g 
v -0.4 0.05 0.15
v -0.4 0 -0.15
v -0.4 0 0.15
v -0.4 0.05 -0.15
v -0.4 0.1 0.15
v -0.4 0.1 -0.15
v -0.4 0.15 0.15
v -0.4 0.15 -0.15
v -0.35 0.05 0.25
v -0.35 0 0.15
v -0.35 0 0.25
v -0.35 0.05 0.15
v -0.35 0.05 -0.15
v -0.35 0 -0.25
v -0.35 0 -0.15
v -0.35 0.05 -0.25
v -0.35 0.1 0.25
v -0.35 0.1 0.15
v -0.35 0.1 -0.15
v -0.35 0.1 -0.25
v -0.35 0.15 0.25
v -0.35 0.15 0.15
v -0.35 0.15 -0.15
v -0.35 0.15 -0.25
v -0.3 0.05 0.3
v -0.3 0 0.25
v -0.3 0 0.3
v -0.3 0.05 0.25
v -0.3 0.05 -0.25
v -0.3 0 -0.3
v -0.3 0 -0.25
v -0.3 0.05 -0.3
v -0.3 0.1 0.3
v -0.3 0.1 0.25
v -0.3 0.1 -0.25
v -0.3 0.1 -0.3
v -0.3 0.15 0.3
v -0.3 0.15 0.25
v -0.3 0.15 -0.25
v -0.3 0.15 -0.3
v -0.25 0.05 0.35
v -0.25 0 0.3
v -0.25 0 0.35
v -0.25 0.05 0.3
v -0.25 0.05 -0.3
v -0.25 0 -0.35
v -0.25 0 -0.3
v -0.25 0.05 -0.35
v -0.25 0.1 0.35
v -0.25 0.1 0.3
v -0.25 0.1 -0.3
v -0.25 0.1 -0.35
v -0.25 0.15 0.35
v -0.25 0.15 0.3
v -0.25 0.15 -0.3
v -0.25 0.15 -0.35
v -0.15 0.05 0.4
v -0.15 0 0.35
v -0.15 0 0.4
v -0.15 0.05 0.35
v -0.15 0.05 -0.35
v -0.15 0 -0.4
v -0.15 0 -0.35
v -0.15 0.05 -0.4
v -0.15 0.1 0.4
v -0.15 0.1 0.35
v -0.15 0.1 -0.35
v -0.15 0.1 -0.4
v -0.15 0.15 0.4
v -0.15 0.15 0.35
v -0.15 0.15 -0.35
v -0.15 0.15 -0.4
v 0.1 0.05 0.3
v 0.1 0 0.25
v 0.1 0 0.3
v 0.1 0.05 0.25
v 0.1 0.05 -0.25
v 0.1 0 -0.3
v 0.1 0 -0.25
v 0.1 0.05 -0.3
v 0.1 0.15 0.3
v 0.1 0.1 0.25
v 0.1 0.1 0.3
v 0.1 0.15 0.25
v 0.1 0.15 -0.25
v 0.1 0.1 -0.3
v 0.1 0.1 -0.25
v 0.1 0.15 -0.3
v 0.2 0.05 0.25
v 0.2 0 0.2
v 0.2 0 0.25
v 0.2 0.05 0.2
v 0.2 0.05 -0.2
v 0.2 0 -0.25
v 0.2 0 -0.2
v 0.2 0.05 -0.25
v 0.2 0.15 0.25
v 0.2 0.1 0.2
v 0.2 0.1 0.25
v 0.2 0.15 0.2
v 0.2 0.15 -0.2
v 0.2 0.1 -0.25
v 0.2 0.1 -0.2
v 0.2 0.15 -0.25
v 0.25 0.05 0.2
v 0.25 0 0.1
v 0.25 0 0.2
v 0.25 0.05 0.1
v 0.25 0.05 -0.1
v 0.25 0 -0.2
v 0.25 0 -0.1
v 0.25 0.05 -0.2
v 0.25 0.15 0.2
v 0.25 0.1 0.1
v 0.25 0.1 0.2
v 0.25 0.15 0.1
v 0.25 0.15 -0.1
v 0.25 0.1 -0.2
v 0.25 0.1 -0.1
v 0.25 0.15 -0.2
v 0.3 0.05 0.1
v 0.3 0 -0.1
v 0.3 0 0.1
v 0.3 0.05 -0.1
v 0.3 0.15 0.1
v 0.3 0.1 -0.1
v 0.3 0.1 0.1
v 0.3 0.15 -0.1
v -0.3 0 0.1
v -0.3 0 -0.1
v -0.3 0.05 0.1
v -0.3 0.05 -0.1
v -0.3 0.1 0.1
v -0.3 0.1 -0.1
v -0.3 0.15 0.1
v -0.3 0.15 -0.1
v -0.25 0 0.2
v -0.25 0 0.1
v -0.25 0.05 0.2
v -0.25 0.05 0.1
v -0.25 0 -0.1
v -0.25 0 -0.2
v -0.25 0.05 -0.1
v -0.25 0.05 -0.2
v -0.25 0.1 0.2
v -0.25 0.1 0.1
v -0.25 0.15 0.2
v -0.25 0.15 0.1
v -0.25 0.1 -0.1
v -0.25 0.1 -0.2
v -0.25 0.15 -0.1
v -0.25 0.15 -0.2
v -0.2 0 0.25
v -0.2 0 0.2
v -0.2 0.05 0.25
v -0.2 0.05 0.2
v -0.2 0 -0.2
v -0.2 0 -0.25
v -0.2 0.05 -0.2
v -0.2 0.05 -0.25
v -0.2 0.1 0.25
v -0.2 0.1 0.2
v -0.2 0.15 0.25
v -0.2 0.15 0.2
v -0.2 0.1 -0.2
v -0.2 0.1 -0.25
v -0.2 0.15 -0.2
v -0.2 0.15 -0.25
v -0.1 0 0.3
v -0.1 0 0.25
v -0.1 0.05 0.3
v -0.1 0.05 0.25
v -0.1 0 -0.25
v -0.1 0 -0.3
v -0.1 0.05 -0.25
v -0.1 0.05 -0.3
v -0.1 0.1 0.3
v -0.1 0.1 0.25
v -0.1 0.15 0.3
v -0.1 0.15 0.25
v -0.1 0.1 -0.25
v -0.1 0.1 -0.3
v -0.1 0.15 -0.25
v -0.1 0.15 -0.3
v 0.15 0 0.4
v 0.15 0 0.35
v 0.15 0.05 0.4
v 0.15 0.05 0.35
v 0.15 0 -0.35
v 0.15 0 -0.4
v 0.15 0.05 -0.35
v 0.15 0.05 -0.4
v 0.15 0.1 0.4
v 0.15 0.1 0.35
v 0.15 0.1 -0.35
v 0.15 0.1 -0.4
v 0.15 0.15 0.4
v 0.15 0.15 0.35
v 0.15 0.15 -0.35
v 0.15 0.15 -0.4
v 0.25 0 0.35
v 0.25 0 0.3
v 0.25 0.05 0.35
v 0.25 0.05 0.3
v 0.25 0 -0.3
v 0.25 0 -0.35
v 0.25 0.05 -0.3
v 0.25 0.05 -0.35
v 0.25 0.1 0.35
v 0.25 0.1 0.3
v 0.25 0.1 -0.3
v 0.25 0.1 -0.35
v 0.25 0.15 0.35
v 0.25 0.15 0.3
v 0.25 0.15 -0.3
v 0.25 0.15 -0.35
v 0.3 0 0.3
v 0.3 0 0.25
v 0.3 0.05 0.3
v 0.3 0.05 0.25
v 0.3 0 -0.25
v 0.3 0 -0.3
v 0.3 0.05 -0.25
v 0.3 0.05 -0.3
v 0.3 0.1 0.3
v 0.3 0.1 0.25
v 0.3 0.1 -0.25
v 0.3 0.1 -0.3
v 0.3 0.15 0.3
v 0.3 0.15 0.25
v 0.3 0.15 -0.25
v 0.3 0.15 -0.3
v 0.35 0 0.25
v 0.35 0 0.15
v 0.35 0.05 0.25
v 0.35 0.05 0.15
v 0.35 0 -0.15
v 0.35 0 -0.25
v 0.35 0.05 -0.15
v 0.35 0.05 -0.25
v 0.35 0.1 0.25
v 0.35 0.1 0.15
v 0.35 0.1 -0.15
v 0.35 0.1 -0.25
v 0.35 0.15 0.25
v 0.35 0.15 0.15
v 0.35 0.15 -0.15
v 0.35 0.15 -0.25
v 0.4 0 0.15
v 0.4 0 -0.15
v 0.4 0.05 0.15
v 0.4 0.05 -0.15
v 0.4 0.1 0.15
v 0.4 0.1 -0.15
v 0.4 0.15 0.15
v 0.4 0.15 -0.15
vn -1 0 0
vn 1 0 0
vn 0 0 1
vn 0 0 -1
vn 0 -1 0
vn 0 1 0
vt 0.341797 0.5
vt 0.810547 0.5
usemtl material_1
f 1/1/1 2/1/1 3/1/1
f 4/1/1 2/1/1 1/1/1
f 5/2/1 4/2/1 1/2/1
f 6/2/1 4/2/1 5/2/1
f 7/1/1 6/1/1 5/1/1
f 8/1/1 6/1/1 7/1/1
f 9/1/1 10/1/1 11/1/1
f 12/1/1 10/1/1 9/1/1
f 13/1/1 14/1/1 15/1/1
f 16/1/1 14/1/1 13/1/1
f 17/2/1 12/2/1 9/2/1
f 18/2/1 12/2/1 17/2/1
f 19/2/1 16/2/1 13/2/1
f 20/2/1 16/2/1 19/2/1
f 21/1/1 18/1/1 17/1/1
f 22/1/1 18/1/1 21/1/1
f 23/1/1 20/1/1 19/1/1
f 24/1/1 20/1/1 23/1/1
f 25/1/1 26/1/1 27/1/1
f 28/1/1 26/1/1 25/1/1
f 29/1/1 30/1/1 31/1/1
f 32/1/1 30/1/1 29/1/1
f 33/2/1 28/2/1 25/2/1
f 34/2/1 28/2/1 33/2/1
f 35/2/1 32/2/1 29/2/1
f 36/2/1 32/2/1 35/2/1
f 37/1/1 34/1/1 33/1/1
f 38/1/1 34/1/1 37/1/1
f 39/1/1 36/1/1 35/1/1
f 40/1/1 36/1/1 39/1/1
f 41/1/1 42/1/1 43/1/1
f 44/1/1 42/1/1 41/1/1
f 45/1/1 46/1/1 47/1/1
f 48/1/1 46/1/1 45/1/1
f 49/2/1 44/2/1 41/2/1
f 50/2/1 44/2/1 49/2/1
f 51/2/1 48/2/1 45/2/1
f 52/2/1 48/2/1 51/2/1
f 53/1/1 50/1/1 49/1/1
f 54/1/1 50/1/1 53/1/1
f 55/1/1 52/1/1 51/1/1
f 56/1/1 52/1/1 55/1/1
f 57/1/1 58/1/1 59/1/1
f 60/1/1 58/1/1 57/1/1
f 61/1/1 62/1/1 63/1/1
f 64/1/1 62/1/1 61/1/1
f 65/2/1 60/2/1 57/2/1
f 66/2/1 60/2/1 65/2/1
f 67/2/1 64/2/1 61/2/1
f 68/2/1 64/2/1 67/2/1
f 69/1/1 66/1/1 65/1/1
f 70/1/1 66/1/1 69/1/1
f 71/1/1 68/1/1 67/1/1
f 72/1/1 68/1/1 71/1/1
f 73/1/1 74/1/1 75/1/1
f 76/1/1 74/1/1 73/1/1
f 77/1/1 78/1/1 79/1/1
f 80/1/1 78/1/1 77/1/1
f 81/1/1 82/1/1 83/1/1
f 84/1/1 82/1/1 81/1/1
f 85/1/1 86/1/1 87/1/1
f 88/1/1 86/1/1 85/1/1
f 89/1/1 90/1/1 91/1/1
f 92/1/1 90/1/1 89/1/1
f 93/1/1 94/1/1 95/1/1
f 96/1/1 94/1/1 93/1/1
f 97/1/1 98/1/1 99/1/1
f 100/1/1 98/1/1 97/1/1
f 101/1/1 102/1/1 103/1/1
f 104/1/1 102/1/1 101/1/1
f 105/1/1 106/1/1 107/1/1
f 108/1/1 106/1/1 105/1/1
f 109/1/1 110/1/1 111/1/1
f 112/1/1 110/1/1 109/1/1
f 113/1/1 114/1/1 115/1/1
f 116/1/1 114/1/1 113/1/1
f 117/1/1 118/1/1 119/1/1
f 120/1/1 118/1/1 117/1/1
f 121/1/1 122/1/1 123/1/1
f 124/1/1 122/1/1 121/1/1
f 125/1/1 126/1/1 127/1/1
f 128/1/1 126/1/1 125/1/1
f 129/1/2 130/1/2 131/1/2
f 131/1/2 130/1/2 132/1/2
f 133/1/2 134/1/2 135/1/2
f 135/1/2 134/1/2 136/1/2
f 137/1/2 138/1/2 139/1/2
f 139/1/2 138/1/2 140/1/2
f 141/1/2 142/1/2 143/1/2
f 143/1/2 142/1/2 144/1/2
f 145/1/2 146/1/2 147/1/2
f 147/1/2 146/1/2 148/1/2
f 149/1/2 150/1/2 151/1/2
f 151/1/2 150/1/2 152/1/2
f 153/1/2 154/1/2 155/1/2
f 155/1/2 154/1/2 156/1/2
f 157/1/2 158/1/2 159/1/2
f 159/1/2 158/1/2 160/1/2
f 161/1/2 162/1/2 163/1/2
f 163/1/2 162/1/2 164/1/2
f 165/1/2 166/1/2 167/1/2
f 167/1/2 166/1/2 168/1/2
f 169/1/2 170/1/2 171/1/2
f 171/1/2 170/1/2 172/1/2
f 173/1/2 174/1/2 175/1/2
f 175/1/2 174/1/2 176/1/2
f 177/1/2 178/1/2 179/1/2
f 179/1/2 178/1/2 180/1/2
f 181/1/2 182/1/2 183/1/2
f 183/1/2 182/1/2 184/1/2
f 185/1/2 186/1/2 187/1/2
f 187/1/2 186/1/2 188/1/2
f 189/1/2 190/1/2 191/1/2
f 191/1/2 190/1/2 192/1/2
f 187/2/2 188/2/2 193/2/2
f 193/2/2 188/2/2 194/2/2
f 191/2/2 192/2/2 195/2/2
f 195/2/2 192/2/2 196/2/2
f 193/1/2 194/1/2 197/1/2
f 197/1/2 194/1/2 198/1/2
f 195/1/2 196/1/2 199/1/2
f 199/1/2 196/1/2 200/1/2
f 201/1/2 202/1/2 203/1/2
f 203/1/2 202/1/2 204/1/2
f 205/1/2 206/1/2 207/1/2
f 207/1/2 206/1/2 208/1/2
f 203/2/2 204/2/2 209/2/2
f 209/2/2 204/2/2 210/2/2
f 207/2/2 208/2/2 211/2/2
f 211/2/2 208/2/2 212/2/2
f 209/1/2 210/1/2 213/1/2
f 213/1/2 210/1/2 214/1/2
f 211/1/2 212/1/2 215/1/2
f 215/1/2 212/1/2 216/1/2
f 217/1/2 218/1/2 219/1/2
f 219/1/2 218/1/2 220/1/2
f 221/1/2 222/1/2 223/1/2
f 223/1/2 222/1/2 224/1/2
f 219/2/2 220/2/2 225/2/2
f 225/2/2 220/2/2 226/2/2
f 223/2/2 224/2/2 227/2/2
f 227/2/2 224/2/2 228/2/2
f 225/1/2 226/1/2 229/1/2
f 229/1/2 226/1/2 230/1/2
f 227/1/2 228/1/2 231/1/2
f 231/1/2 228/1/2 232/1/2
f 233/1/2 234/1/2 235/1/2
f 235/1/2 234/1/2 236/1/2
f 237/1/2 238/1/2 239/1/2
f 239/1/2 238/1/2 240/1/2
f 235/2/2 236/2/2 241/2/2
f 241/2/2 236/2/2 242/2/2
f 239/2/2 240/2/2 243/2/2
f 243/2/2 240/2/2 244/2/2
f 241/1/2 242/1/2 245/1/2
f 245/1/2 242/1/2 246/1/2
f 243/1/2 244/1/2 247/1/2
f 247/1/2 244/1/2 248/1/2
f 249/1/2 250/1/2 251/1/2
f 251/1/2 250/1/2 252/1/2
f 251/2/2 252/2/2 253/2/2
f 253/2/2 252/2/2 254/2/2
f 253/1/2 254/1/2 255/1/2
f 255/1/2 254/1/2 256/1/2
f 185/1/3 57/1/3 59/1/3
f 187/2/3 65/2/3 57/2/3
f 187/1/3 57/1/3 185/1/3
f 193/1/3 69/1/3 65/1/3
f 193/2/3 65/2/3 187/2/3
f 197/1/3 69/1/3 193/1/3
f 58/1/3 41/1/3 43/1/3
f 60/2/3 49/2/3 41/2/3
f 60/1/3 41/1/3 58/1/3
f 66/1/3 53/1/3 49/1/3
f 66/2/3 49/2/3 60/2/3
f 70/1/3 53/1/3 66/1/3
f 201/1/3 188/1/3 186/1/3
f 203/2/3 194/2/3 188/2/3
f 203/1/3 188/1/3 201/1/3
f 209/1/3 198/1/3 194/1/3
f 209/2/3 194/2/3 203/2/3
f 213/1/3 198/1/3 209/1/3
f 42/1/3 25/1/3 27/1/3
f 44/2/3 33/2/3 25/2/3
f 44/1/3 25/1/3 42/1/3
f 50/1/3 37/1/3 33/1/3
f 50/2/3 33/2/3 44/2/3
f 54/1/3 37/1/3 50/1/3
f 217/1/3 204/1/3 202/1/3
f 219/2/3 210/2/3 204/2/3
f 219/1/3 204/1/3 217/1/3
f 225/1/3 214/1/3 210/1/3
f 225/2/3 210/2/3 219/2/3
f 229/1/3 214/1/3 225/1/3
f 26/1/3 9/1/3 11/1/3
f 28/2/3 17/2/3 9/2/3
f 28/1/3 9/1/3 26/1/3
f 34/1/3 21/1/3 17/1/3
f 34/2/3 17/2/3 28/2/3
f 38/1/3 21/1/3 34/1/3
f 233/1/3 220/1/3 218/1/3
f 235/2/3 226/2/3 220/2/3
f 235/1/3 220/1/3 233/1/3
f 241/1/3 230/1/3 226/1/3
f 241/2/3 226/2/3 235/2/3
f 245/1/3 230/1/3 241/1/3
f 10/1/3 1/1/3 3/1/3
f 12/2/3 5/2/3 1/2/3
f 12/1/3 1/1/3 10/1/3
f 18/1/3 7/1/3 5/1/3
f 18/2/3 5/2/3 12/2/3
f 22/1/3 7/1/3 18/1/3
f 249/1/3 236/1/3 234/1/3
f 251/2/3 242/2/3 236/2/3
f 251/1/3 236/1/3 249/1/3
f 253/1/3 246/1/3 242/1/3
f 253/2/3 242/2/3 251/2/3
f 255/1/3 246/1/3 253/1/3
f 141/1/3 132/1/3 130/1/3
f 143/1/3 132/1/3 141/1/3
f 149/1/3 136/1/3 134/1/3
f 151/1/3 136/1/3 149/1/3
f 122/1/3 109/1/3 111/1/3
f 124/1/3 109/1/3 122/1/3
f 126/1/3 117/1/3 119/1/3
f 128/1/3 117/1/3 126/1/3
f 157/1/3 144/1/3 142/1/3
f 159/1/3 144/1/3 157/1/3
f 165/1/3 152/1/3 150/1/3
f 167/1/3 152/1/3 165/1/3
f 110/1/3 93/1/3 95/1/3
f 112/1/3 93/1/3 110/1/3
f 118/1/3 101/1/3 103/1/3
f 120/1/3 101/1/3 118/1/3
f 173/1/3 160/1/3 158/1/3
f 175/1/3 160/1/3 173/1/3
f 181/1/3 168/1/3 166/1/3
f 183/1/3 168/1/3 181/1/3
f 94/1/3 77/1/3 79/1/3
f 96/1/3 77/1/3 94/1/3
f 102/1/3 85/1/3 87/1/3
f 104/1/3 85/1/3 102/1/3
f 78/1/3 176/1/3 174/1/3
f 80/1/3 176/1/3 78/1/3
f 86/1/3 184/1/3 182/1/3
f 88/1/3 184/1/3 86/1/3
f 169/1/4 171/1/4 75/1/4
f 75/1/4 171/1/4 73/1/4
f 177/1/4 179/1/4 83/1/4
f 83/1/4 179/1/4 81/1/4
f 153/1/4 155/1/4 170/1/4
f 170/1/4 155/1/4 172/1/4
f 161/1/4 163/1/4 178/1/4
f 178/1/4 163/1/4 180/1/4
f 74/1/4 76/1/4 91/1/4
f 91/1/4 76/1/4 89/1/4
f 82/1/4 84/1/4 99/1/4
f 99/1/4 84/1/4 97/1/4
f 137/1/4 139/1/4 154/1/4
f 154/1/4 139/1/4 156/1/4
f 145/1/4 147/1/4 162/1/4
f 162/1/4 147/1/4 164/1/4
f 90/1/4 92/1/4 107/1/4
f 107/1/4 92/1/4 105/1/4
f 98/1/4 100/1/4 115/1/4
f 115/1/4 100/1/4 113/1/4
f 129/1/4 131/1/4 138/1/4
f 138/1/4 131/1/4 140/1/4
f 133/1/4 135/1/4 146/1/4
f 146/1/4 135/1/4 148/1/4
f 106/1/4 108/1/4 123/1/4
f 123/1/4 108/1/4 121/1/4
f 114/1/4 116/1/4 127/1/4
f 127/1/4 116/1/4 125/1/4
f 2/1/4 4/1/4 15/1/4
f 4/2/4 6/2/4 13/2/4
f 15/1/4 4/1/4 13/1/4
f 6/1/4 8/1/4 19/1/4
f 13/2/4 6/2/4 19/2/4
f 19/1/4 8/1/4 23/1/4
f 237/1/4 239/1/4 250/1/4
f 239/2/4 243/2/4 252/2/4
f 250/1/4 239/1/4 252/1/4
f 243/1/4 247/1/4 254/1/4
f 252/2/4 243/2/4 254/2/4
f 254/1/4 247/1/4 256/1/4
f 14/1/4 16/1/4 31/1/4
f 16/2/4 20/2/4 29/2/4
f 31/1/4 16/1/4 29/1/4
f 20/1/4 24/1/4 35/1/4
f 29/2/4 20/2/4 35/2/4
f 35/1/4 24/1/4 39/1/4
f 221/1/4 223/1/4 238/1/4
f 223/2/4 227/2/4 240/2/4
f 238/1/4 223/1/4 240/1/4
f 227/1/4 231/1/4 244/1/4
f 240/2/4 227/2/4 244/2/4
f 244/1/4 231/1/4 248/1/4
f 30/1/4 32/1/4 47/1/4
f 32/2/4 36/2/4 45/2/4
f 47/1/4 32/1/4 45/1/4
f 36/1/4 40/1/4 51/1/4
f 45/2/4 36/2/4 51/2/4
f 51/1/4 40/1/4 55/1/4
f 205/1/4 207/1/4 222/1/4
f 207/2/4 211/2/4 224/2/4
f 222/1/4 207/1/4 224/1/4
f 211/1/4 215/1/4 228/1/4
f 224/2/4 211/2/4 228/2/4
f 228/1/4 215/1/4 232/1/4
f 46/1/4 48/1/4 63/1/4
f 48/2/4 52/2/4 61/2/4
f 63/1/4 48/1/4 61/1/4
f 52/1/4 56/1/4 67/1/4
f 61/2/4 52/2/4 67/2/4
f 67/1/4 56/1/4 71/1/4
f 189/1/4 191/1/4 206/1/4
f 191/2/4 195/2/4 208/2/4
f 206/1/4 191/1/4 208/1/4
f 195/1/4 199/1/4 212/1/4
f 208/2/4 195/2/4 212/2/4
f 212/1/4 199/1/4 216/1/4
f 62/1/4 64/1/4 190/1/4
f 64/2/4 68/2/4 192/2/4
f 190/1/4 64/1/4 192/1/4
f 68/1/4 72/1/4 196/1/4
f 192/2/4 68/2/4 196/2/4
f 196/1/4 72/1/4 200/1/4
f 58/1/5 185/1/5 59/1/5
f 186/1/5 185/1/5 58/1/5
f 42/1/5 58/1/5 43/1/5
f 42/1/5 201/1/5 186/1/5
f 42/1/5 186/1/5 58/1/5
f 169/1/5 201/1/5 42/1/5
f 75/1/5 201/1/5 169/1/5
f 202/1/5 201/1/5 75/1/5
f 26/1/5 42/1/5 27/1/5
f 26/1/5 169/1/5 42/1/5
f 153/1/5 169/1/5 26/1/5
f 170/1/5 169/1/5 153/1/5
f 74/1/5 202/1/5 75/1/5
f 74/1/5 217/1/5 202/1/5
f 91/1/5 217/1/5 74/1/5
f 218/1/5 217/1/5 91/1/5
f 137/1/5 153/1/5 26/1/5
f 137/1/5 26/1/5 11/1/5
f 154/1/5 153/1/5 137/1/5
f 90/1/5 233/1/5 218/1/5
f 90/1/5 218/1/5 91/1/5
f 107/1/5 233/1/5 90/1/5
f 10/1/5 137/1/5 11/1/5
f 234/1/5 233/1/5 107/1/5
f 129/1/5 10/1/5 3/1/5
f 129/1/5 137/1/5 10/1/5
f 138/1/5 137/1/5 129/1/5
f 106/1/5 249/1/5 234/1/5
f 106/1/5 234/1/5 107/1/5
f 123/1/5 249/1/5 106/1/5
f 130/1/5 129/1/5 3/1/5
f 122/1/5 249/1/5 123/1/5
f 2/1/5 141/1/5 130/1/5
f 2/1/5 130/1/5 3/1/5
f 15/1/5 141/1/5 2/1/5
f 237/1/5 122/1/5 111/1/5
f 237/1/5 249/1/5 122/1/5
f 250/1/5 249/1/5 237/1/5
f 142/1/5 141/1/5 15/1/5
f 110/1/5 237/1/5 111/1/5
f 14/1/5 157/1/5 142/1/5
f 14/1/5 142/1/5 15/1/5
f 31/1/5 157/1/5 14/1/5
f 158/1/5 157/1/5 31/1/5
f 94/1/5 110/1/5 95/1/5
f 221/1/5 237/1/5 110/1/5
f 221/1/5 110/1/5 94/1/5
f 238/1/5 237/1/5 221/1/5
f 30/1/5 173/1/5 158/1/5
f 30/1/5 158/1/5 31/1/5
f 47/1/5 173/1/5 30/1/5
f 174/1/5 173/1/5 47/1/5
f 78/1/5 94/1/5 79/1/5
f 78/1/5 221/1/5 94/1/5
f 205/1/5 221/1/5 78/1/5
f 222/1/5 221/1/5 205/1/5
f 46/1/5 174/1/5 47/1/5
f 46/1/5 205/1/5 78/1/5
f 46/1/5 78/1/5 174/1/5
f 63/1/5 205/1/5 46/1/5
f 189/1/5 205/1/5 63/1/5
f 206/1/5 205/1/5 189/1/5
f 62/1/5 189/1/5 63/1/5
f 190/1/5 189/1/5 62/1/5
f 172/2/5 73/2/5 171/2/5
f 76/2/5 73/2/5 172/2/5
f 156/2/5 172/2/5 155/2/5
f 156/2/5 89/2/5 76/2/5
f 156/2/5 76/2/5 172/2/5
f 92/2/5 89/2/5 156/2/5
f 140/2/5 156/2/5 139/2/5
f 140/2/5 105/2/5 92/2/5
f 140/2/5 92/2/5 156/2/5
f 108/2/5 105/2/5 140/2/5
f 132/2/5 140/2/5 131/2/5
f 132/2/5 121/2/5 108/2/5
f 132/2/5 108/2/5 140/2/5
f 143/2/5 121/2/5 132/2/5
f 109/2/5 121/2/5 143/2/5
f 124/2/5 121/2/5 109/2/5
f 144/2/5 109/2/5 143/2/5
f 159/2/5 109/2/5 144/2/5
f 93/2/5 109/2/5 159/2/5
f 112/2/5 109/2/5 93/2/5
f 160/2/5 93/2/5 159/2/5
f 175/2/5 93/2/5 160/2/5
f 77/2/5 93/2/5 175/2/5
f 96/2/5 93/2/5 77/2/5
f 176/2/5 77/2/5 175/2/5
f 80/2/5 77/2/5 176/2/5
f 177/2/6 83/2/6 178/2/6
f 178/2/6 83/2/6 82/2/6
f 161/2/6 178/2/6 162/2/6
f 82/2/6 99/2/6 162/2/6
f 178/2/6 82/2/6 162/2/6
f 162/2/6 99/2/6 98/2/6
f 145/2/6 162/2/6 146/2/6
f 98/2/6 115/2/6 146/2/6
f 162/2/6 98/2/6 146/2/6
f 146/2/6 115/2/6 114/2/6
f 133/2/6 146/2/6 134/2/6
f 114/2/6 127/2/6 134/2/6
f 146/2/6 114/2/6 134/2/6
f 134/2/6 127/2/6 149/2/6
f 149/2/6 127/2/6 119/2/6
f 119/2/6 127/2/6 126/2/6
f 149/2/6 119/2/6 150/2/6
f 150/2/6 119/2/6 165/2/6
f 165/2/6 119/2/6 103/2/6
f 103/2/6 119/2/6 118/2/6
f 165/2/6 103/2/6 166/2/6
f 166/2/6 103/2/6 181/2/6
f 181/2/6 103/2/6 87/2/6
f 87/2/6 103/2/6 102/2/6
f 181/2/6 87/2/6 182/2/6
f 182/2/6 87/2/6 86/2/6
f 69/1/6 197/1/6 70/1/6
f 70/1/6 197/1/6 198/1/6
f 53/1/6 70/1/6 54/1/6
f 198/1/6 213/1/6 54/1/6
f 70/1/6 198/1/6 54/1/6
f 54/1/6 213/1/6 179/1/6
f 179/1/6 213/1/6 81/1/6
f 81/1/6 213/1/6 214/1/6
f 37/1/6 54/1/6 38/1/6
f 54/1/6 179/1/6 38/1/6
f 38/1/6 179/1/6 163/1/6
f 163/1/6 179/1/6 180/1/6
f 81/1/6 214/1/6 84/1/6
f 214/1/6 229/1/6 84/1/6
f 84/1/6 229/1/6 97/1/6
f 97/1/6 229/1/6 230/1/6
f 38/1/6 163/1/6 147/1/6
f 21/1/6 38/1/6 147/1/6
f 147/1/6 163/1/6 164/1/6
f 230/1/6 245/1/6 100/1/6
f 97/1/6 230/1/6 100/1/6
f 100/1/6 245/1/6 113/1/6
f 21/1/6 147/1/6 22/1/6
f 113/1/6 245/1/6 246/1/6
f 7/1/6 22/1/6 135/1/6
f 22/1/6 147/1/6 135/1/6
f 135/1/6 147/1/6 148/1/6
f 246/1/6 255/1/6 116/1/6
f 113/1/6 246/1/6 116/1/6
f 116/1/6 255/1/6 125/1/6
f 7/1/6 135/1/6 136/1/6
f 125/1/6 255/1/6 128/1/6
f 136/1/6 151/1/6 8/1/6
f 7/1/6 136/1/6 8/1/6
f 8/1/6 151/1/6 23/1/6
f 117/1/6 128/1/6 247/1/6
f 128/1/6 255/1/6 247/1/6
f 247/1/6 255/1/6 256/1/6
f 23/1/6 151/1/6 152/1/6
f 117/1/6 247/1/6 120/1/6
f 152/1/6 167/1/6 24/1/6
f 23/1/6 152/1/6 24/1/6
f 24/1/6 167/1/6 39/1/6
f 39/1/6 167/1/6 168/1/6
f 101/1/6 120/1/6 104/1/6
f 120/1/6 247/1/6 231/1/6
f 104/1/6 120/1/6 231/1/6
f 231/1/6 247/1/6 248/1/6
f 168/1/6 183/1/6 40/1/6
f 39/1/6 168/1/6 40/1/6
f 40/1/6 183/1/6 55/1/6
f 55/1/6 183/1/6 184/1/6
f 85/1/6 104/1/6 88/1/6
f 104/1/6 231/1/6 88/1/6
f 88/1/6 231/1/6 215/1/6
f 215/1/6 231/1/6 232/1/6
f 55/1/6 184/1/6 56/1/6
f 88/1/6 215/1/6 56/1/6
f 184/1/6 88/1/6 56/1/6
f 56/1/6 215/1/6 71/1/6
f 71/1/6 215/1/6 199/1/6
f 199/1/6 215/1/6 216/1/6
f 71/1/6 199/1/6 72/1/6
f 72/1/6 199/1/6 200/1/6
s off
